<?xml version="1.0" encoding="UTF-8" standalone="no"?>
<svg
   xmlns:dc="http://purl.org/dc/elements/1.1/"
   xmlns:cc="http://creativecommons.org/ns#"
   xmlns:rdf="http://www.w3.org/1999/02/22-rdf-syntax-ns#"
   xmlns:svg="http://www.w3.org/2000/svg"
   xmlns="http://www.w3.org/2000/svg"
   xmlns:sodipodi="http://sodipodi.sourceforge.net/DTD/sodipodi-0.dtd"
   xmlns:inkscape="http://www.inkscape.org/namespaces/inkscape"
   version="1.1"
   x="0px"
   y="0px"
   viewBox="0 0 64 76"
   enable-background="new 0 0 100 100"
   xml:space="preserve"
   id="svg8"
   sodipodi:docname="book.svg"
   width="64"
   height="76"
   inkscape:version="0.92.1 r15371"><metadata
     id="metadata14"><rdf:RDF><cc:Work
         rdf:about=""><dc:format>image/svg+xml</dc:format><dc:type
           rdf:resource="http://purl.org/dc/dcmitype/StillImage" /><dc:title></dc:title></cc:Work></rdf:RDF></metadata><defs
     id="defs12" /><sodipodi:namedview
     pagecolor="#ffffff"
     bordercolor="#666666"
     borderopacity="1"
     objecttolerance="10"
     gridtolerance="10"
     guidetolerance="10"
     inkscape:pageopacity="0"
     inkscape:pageshadow="2"
     inkscape:window-width="1233"
     inkscape:window-height="719"
     id="namedview10"
     showgrid="false"
     fit-margin-top="0"
     fit-margin-left="0"
     fit-margin-right="0"
     fit-margin-bottom="0"
     inkscape:zoom="1.888"
     inkscape:cx="32"
     inkscape:cy="25.5"
     inkscape:window-x="0"
     inkscape:window-y="0"
     inkscape:window-maximized="0"
     inkscape:current-layer="svg8" /><path
     d="M 62,0 H 10 C 4.5,0 0,4.5 0,10 v 56 c 0,5.5 4.5,10 10,10 h 52 c 1.1,0 2,-0.9 2,-2 V 2 C 64,0.9 63.1,0 62,0 Z M 10,4 H 60 V 56 H 10 C 7.7,56 5.7,56.8 4,58 V 10 C 4,6.7 6.7,4 10,4 Z M 60,72 H 10 C 2.071,72 2.057,60 10,60 H 60 Z M 17,30 h 30 c 0.6,0 1,-0.4 1,-1 V 15 c 0,-0.6 -0.4,-1 -1,-1 H 17 c -0.6,0 -1,0.4 -1,1 v 14 c 0,0.6 0.4,1 1,1 z M 18,16 H 46 V 28 H 18 Z"
     id="path2"
     inkscape:connector-curvature="0" /></svg>