<?xml version="1.0" encoding="UTF-8" standalone="no"?>
<svg
   xmlns:dc="http://purl.org/dc/elements/1.1/"
   xmlns:cc="http://creativecommons.org/ns#"
   xmlns:rdf="http://www.w3.org/1999/02/22-rdf-syntax-ns#"
   xmlns:svg="http://www.w3.org/2000/svg"
   xmlns="http://www.w3.org/2000/svg"
   xmlns:sodipodi="http://sodipodi.sourceforge.net/DTD/sodipodi-0.dtd"
   xmlns:inkscape="http://www.inkscape.org/namespaces/inkscape"
   version="1.1"
   x="0px"
   y="0px"
   viewBox="0 0 406.39999 508"
   enable-background="new 0 0 512 512"
   xml:space="preserve"
   id="svg12"
   sodipodi:docname="brackets.svg"
   width="406.39999"
   height="508"
   inkscape:version="0.92.1 r15371"><metadata
     id="metadata18"><rdf:RDF><cc:Work
         rdf:about=""><dc:format>image/svg+xml</dc:format><dc:type
           rdf:resource="http://purl.org/dc/dcmitype/StillImage" /><dc:title></dc:title></cc:Work></rdf:RDF></metadata><defs
     id="defs16" /><sodipodi:namedview
     pagecolor="#ffffff"
     bordercolor="#666666"
     borderopacity="1"
     objecttolerance="10"
     gridtolerance="10"
     guidetolerance="10"
     inkscape:pageopacity="0"
     inkscape:pageshadow="2"
     inkscape:window-width="1178"
     inkscape:window-height="666"
     id="namedview14"
     showgrid="false"
     fit-margin-top="0"
     fit-margin-left="0"
     fit-margin-right="0"
     fit-margin-bottom="0"
     inkscape:zoom="0.36875"
     inkscape:cx="203.2"
     inkscape:cy="190"
     inkscape:window-x="226"
     inkscape:window-y="74"
     inkscape:window-maximized="0"
     inkscape:current-layer="svg12" /><g
     id="g6"
     transform="translate(-52.8,-2)"><path
       d="m 433.8,230.6 c -14,0 -25.4,-11.4 -25.4,-25.4 V 78.2 C 408.4,36.2 374.2,2 332.2,2 c -14,0 -25.4,11.4 -25.4,25.4 0,14 11.4,25.4 25.4,25.4 14,0 25.4,11.4 25.4,25.4 v 127 c 0,19.6 7.6,37.3 19.8,50.8 -12.2,13.5 -19.8,31.2 -19.8,50.8 v 127 c 0,14 -11.4,25.4 -25.4,25.4 -14,0 -25.4,11.4 -25.4,25.4 0,14 11.4,25.4 25.4,25.4 42,0 76.2,-34.2 76.2,-76.2 v -127 c 0,-14 11.4,-25.4 25.4,-25.4 14,0 25.4,-11.4 25.4,-25.4 0,-14 -11.4,-25.4 -25.4,-25.4 z"
       id="path2"
       inkscape:connector-curvature="0" /><path
       d="m 154.4,78.2 c 0,-14 11.4,-25.4 25.4,-25.4 14,0 25.4,-11.4 25.4,-25.4 0,-14 -11.4,-25.4 -25.4,-25.4 -42,0 -76.2,34.2 -76.2,76.2 v 127 c 0,14 -11.4,25.4 -25.4,25.4 -14,0 -25.4,11.4 -25.4,25.4 0,14 11.4,25.4 25.4,25.4 14,0 25.4,11.4 25.4,25.4 v 127 c 0,42 34.2,76.2 76.2,76.2 14,0 25.4,-11.4 25.4,-25.4 0,-14 -11.4,-25.4 -25.4,-25.4 -14,0 -25.4,-11.4 -25.4,-25.4 v -127 c 0,-19.6 -7.6,-37.3 -19.8,-50.8 12.2,-13.5 19.8,-31.2 19.8,-50.8 z"
       id="path4"
       inkscape:connector-curvature="0" /></g></svg>